<svg xmlns="http://www.w3.org/2000/svg" width="20.773" height="20.819" viewBox="0 0 20.773 20.819">
  <path id="Trazado_224" data-name="Trazado 224" d="M49.4,882.3H47.665a4.276,4.276,0,0,0-.6-1.316l1.2-1.2a1.457,1.457,0,0,0,0-1.914l-1.257-1.256a1.455,1.455,0,0,0-1.915,0l-1.2,1.2a6.719,6.719,0,0,0-1.316-.658V875.42a1.416,1.416,0,0,0-1.317-1.317H39.408a1.327,1.327,0,0,0-1.317,1.317v1.735a4.3,4.3,0,0,0-1.316.6l-1.2-1.2a1.534,1.534,0,0,0-1.974,0l-1.316,1.2a1.536,1.536,0,0,0,0,1.974l1.2,1.2c-.24.419-.359.9-.6,1.317H31.212a1.327,1.327,0,0,0-1.316,1.316v1.915a1.369,1.369,0,0,0,1.316,1.316h1.736a4.277,4.277,0,0,0,.6,1.317l-1.2,1.2a1.456,1.456,0,0,0,0,1.915l1.256,1.256a1.455,1.455,0,0,0,1.915,0l1.2-1.2c.419.24.9.359,1.317.6v1.736a1.327,1.327,0,0,0,1.316,1.316H41.2a1.327,1.327,0,0,0,1.316-1.316v-1.736a4.277,4.277,0,0,0,1.317-.6l1.2,1.2a1.455,1.455,0,0,0,1.915,0l1.256-1.256a1.454,1.454,0,0,0,0-1.914l-1.2-1.2c.24-.419.359-.9.6-1.317h1.736a1.327,1.327,0,0,0,1.316-1.316v-1.855A1.18,1.18,0,0,0,49.4,882.3h0Zm.419,3.17a.409.409,0,0,1-.419.419H47.366a.45.45,0,0,0-.419.3,6.673,6.673,0,0,1-.718,1.8c-.119.179-.06.359.06.6l1.376,1.376a.434.434,0,0,1,0,.6l-1.257,1.257a.468.468,0,0,1-.658,0l-1.436-1.436a.523.523,0,0,0-.6-.06,6.642,6.642,0,0,1-1.794.718.449.449,0,0,0-.3.419v2.033a.409.409,0,0,1-.419.419H39.408a.409.409,0,0,1-.419-.419v-2.033a.45.45,0,0,0-.3-.419,6.684,6.684,0,0,1-1.8-.718c-.06-.06-.119-.06-.3-.06a.456.456,0,0,0-.3.12l-1.436,1.436a.427.427,0,0,1-.658.06l-1.256-1.257a.467.467,0,0,1,0-.658l1.436-1.436a.524.524,0,0,0,.06-.6,6.579,6.579,0,0,1-.777-1.736.452.452,0,0,0-.419-.3H31.212a.409.409,0,0,1-.419-.419v-1.854a.409.409,0,0,1,.419-.419h2.034a.452.452,0,0,0,.419-.3,6.627,6.627,0,0,1,.718-1.8c.119-.179.06-.359-.061-.6l-1.375-1.436a.468.468,0,0,1,0-.658l1.256-1.256a.469.469,0,0,1,.658,0l1.436,1.436a.524.524,0,0,0,.6.06,6.59,6.59,0,0,1,1.8-.718c.179,0,.3-.24.3-.419v-2.094a.409.409,0,0,1,.419-.419h1.854a.409.409,0,0,1,.419.419v2.034a.451.451,0,0,0,.3.419,6.639,6.639,0,0,1,1.8.718c.179.119.359.06.6-.06l1.376-1.376a.469.469,0,0,1,.658,0l1.257,1.256a.459.459,0,0,1,.119.3c0,.12,0,.24-.119.3l-1.436,1.435a.524.524,0,0,0-.06.6,6.632,6.632,0,0,1,.718,1.8.449.449,0,0,0,.419.3H49.34a.409.409,0,0,1,.419.419v1.915h.06Zm-9.512-5.025a4.068,4.068,0,1,0,4.068,4.068A4.112,4.112,0,0,0,40.306,880.444Zm0,7.239a3.171,3.171,0,1,1,3.172-3.171A3.117,3.117,0,0,1,40.306,887.683Z" transform="translate(-29.896 -874.104)"/>
</svg>
