<svg xmlns="http://www.w3.org/2000/svg" width="17.313" height="15.006" viewBox="0 0 17.313 15.006">
  <g id="Grupo_517" data-name="Grupo 517" transform="translate(-55.418 -620.051)">
    <g id="Grupo_72" data-name="Grupo 72">
      <path id="Trazado_34" data-name="Trazado 34" d="M72.055,623.036a2.224,2.224,0,0,0-1.632-.676H68.4l-.46-1.226a1.675,1.675,0,0,0-.627-.763,1.608,1.608,0,0,0-.933-.32H61.766a1.609,1.609,0,0,0-.934.32,1.675,1.675,0,0,0-.627.763l-.46,1.226H57.726a2.308,2.308,0,0,0-2.309,2.308v8.081a2.308,2.308,0,0,0,2.309,2.308h12.7a2.308,2.308,0,0,0,2.308-2.308v-8.081a2.224,2.224,0,0,0-.676-1.632Zm-5.127,8.527a4.027,4.027,0,1,1,1.186-2.854,3.892,3.892,0,0,1-1.186,2.854Zm0,0"/>
      <path id="Trazado_35" data-name="Trazado 35" d="M64.074,626.111a2.6,2.6,0,1,0,1.835.762,2.5,2.5,0,0,0-1.835-.762Zm0,0"/>
    </g>
  </g>
</svg>
