<svg xmlns="http://www.w3.org/2000/svg" width="18.814" height="20.82" viewBox="0 0 18.814 20.82">
  <path id="Trazado_255" data-name="Trazado 255" d="M458.319,40.388a3.045,3.045,0,0,0-2.049.805l-7.452-4.338a2.893,2.893,0,0,0,0-1.463l7.369-4.3a3.129,3.129,0,1,0-1-2.289,3.414,3.414,0,0,0,.094.732l-7.369,4.3a3.135,3.135,0,1,0,0,4.577l7.441,4.348a2.943,2.943,0,0,0-.083.679,3.052,3.052,0,1,0,3.052-3.052Zm0-12.626a1.045,1.045,0,1,1-1.045,1.045A1.048,1.048,0,0,1,458.319,27.762Zm-12.543,9.407a1.045,1.045,0,1,1,1.045-1.045A1.049,1.049,0,0,1,445.776,37.169Zm12.543,7.337a1.045,1.045,0,1,1,1.044-1.044A1.048,1.048,0,0,1,458.319,44.506Z" transform="translate(-442.641 -25.672)"/>
</svg>
