<svg xmlns="http://www.w3.org/2000/svg" width="17.523" height="20.819" viewBox="0 0 17.523 20.819">
  <path id="Trazado_259" data-name="Trazado 259" d="M45.839,749.615c1.237,0,1.581.412,1.581,1.58v8.314c0,1.1-.413,1.511-1.511,1.511H42.2v-1.03h3.367c.619,0,.894-.137.894-.756-.069-2.611-.069-5.221-.069-7.833.069-.618-.137-.756-.756-.756H31.684c-.618,0-.756.207-.756.756v7.833c0,.618.137.756.756.756h3.368v1.03H30.86a1.031,1.031,0,0,1-.964-1.029c0-.025,0-.049,0-.074v-9.136c0-.824.55-1.168,1.511-1.168Zm-7.078,11.544h2.061c.413,0,.687-.137.687-.618s-.069-2.337-.069-3.436a1.377,1.377,0,0,0-.546-.891l0,0c-.894-.48-1.1-.275-1.649.55l-.618.687-.55-.687c-.618-.824-.756-1.03-1.649-.55a1.376,1.376,0,0,0-.549.886v.008c0,1.1,0,2.267-.069,3.436s.275.618.687.618h2.269Zm7.009,9.207c.48,0,.687-.137.687-.619v-2.474c0-.48-.207-.687-.687-.824a6.329,6.329,0,0,0-1.843-.268,6.475,6.475,0,0,0-1.638.21l.045-.009a.825.825,0,0,0-.691.813c0,.029,0,.056,0,.084v2.47c0,.413.137.618.619.618h3.5Zm-10.994.069c.206-.069.55-.344.55-.55v-2.68c0-.894-.275-.619-.687-.756a6.606,6.606,0,0,0-1.88-.267,6.784,6.784,0,0,0-1.671.209l.047-.01a.9.9,0,0,0-.759.883.771.771,0,0,0,0,.083v2.471c0,.48.275.618.687.618Zm5.5-.069c.207-.069.55-.344.55-.55.015-.275.023-.6.023-.917a18.556,18.556,0,0,0-.1-1.91l.007.079a.76.76,0,0,0-.476-.548h-.005a4.859,4.859,0,0,0-1.855-.361,4.94,4.94,0,0,0-1.888.373l.032-.012a.9.9,0,0,0-.48.612v.006c-.032.4-.051.869-.051,1.34s.019.939.055,1.4l0-.061a.757.757,0,0,0,.475.548l.006,0c.277.016.6.026.927.026s.651-.009.972-.028l-.044,0c.277.016.6.026.928.026s.651-.009.972-.028l-.045,0Zm-1.649-18.69a1.925,1.925,0,0,0-1.787,1.919v.006h0a1.856,1.856,0,0,0,1.855,1.786h0a1.855,1.855,0,0,0-.035-3.71h-.034Zm0,10.582h0a1.649,1.649,0,0,0-1.647,1.577v0a1.65,1.65,0,0,0,1.648,1.582h.071a1.581,1.581,0,0,0,1.511-1.579h0a1.581,1.581,0,0,0-1.581-1.58h0Zm5.7,0a1.581,1.581,0,0,0-1.58,1.58h0a1.581,1.581,0,0,0,1.58,1.581H44.4a1.65,1.65,0,0,0,1.58-1.577v0h0a1.58,1.58,0,0,0-1.58-1.581h-.069Zm-9.894,1.58c0-.021,0-.044,0-.069a1.512,1.512,0,0,0-1.511-1.511h0c-.02,0-.045,0-.07,0a1.58,1.58,0,0,0-1.58,1.581c0,.025,0,.049,0,.073v0h0a1.512,1.512,0,0,0,1.511,1.511l.072,0h0a1.58,1.58,0,0,0,1.58-1.58Z" transform="translate(-29.896 -749.615)"/>
</svg>
