<svg xmlns="http://www.w3.org/2000/svg" width="24" height="23.112" viewBox="0 0 24 23.112">
  <path id="Trazado_265" data-name="Trazado 265" d="M35.313,816.181a1.72,1.72,0,0,1-.723-.241,1.431,1.431,0,0,1-.481-1.324l1.565-6.862-5.3-4.574a1.149,1.149,0,0,1-.361-1.445c.12-.481.482-.722,1.083-.842l6.862-.6,2.769-6.5a1.363,1.363,0,0,1,2.407,0l2.769,6.5,6.861.6a1.157,1.157,0,0,1,1.084.842,1.36,1.36,0,0,1-.362,1.325l-5.3,4.574,1.565,6.861a1.433,1.433,0,0,1-.482,1.324,1.517,1.517,0,0,1-1.444.121l-6.019-3.612-6.019,3.612C35.794,816.06,35.553,816.181,35.313,816.181Zm6.62-5.3a.916.916,0,0,1,.6.241l5.658,3.37-1.445-6.5a1.091,1.091,0,0,1,.361-1.2l4.936-4.333-6.5-.723a1.384,1.384,0,0,1-1.084-.722l-2.648-6.019-2.648,6.019a.8.8,0,0,1-.843.722l-6.621.6,4.936,4.334a1.222,1.222,0,0,1,.361,1.2l-1.445,6.379,5.658-3.37Zm-3.972-10.473Zm7.945,0Z" transform="translate(-29.896 -793.068)"/>
</svg>
