<svg xmlns="http://www.w3.org/2000/svg" width="20.818" height="20.82" viewBox="0 0 20.818 20.82">
  <path id="Trazado_263" data-name="Trazado 263" d="M223.019,260.415v12.492H210.529V260.415h12.491m0-2.082H210.529a2.088,2.088,0,0,0-2.082,2.082v12.492a2.088,2.088,0,0,0,2.082,2.081h12.491a2.088,2.088,0,0,0,2.082-2.081V260.415A2.088,2.088,0,0,0,223.019,258.333ZM214.172,268.4l1.759,2.353,2.582-3.228,3.467,4.341H211.569Zm-9.889-5.9v14.573a2.088,2.088,0,0,0,2.081,2.082h14.574v-2.082H206.364V262.5Z" transform="translate(-204.283 -258.333)"/>
</svg>
