<svg xmlns="http://www.w3.org/2000/svg" width="23.143" height="20.819" viewBox="0 0 23.143 20.819">
  <path id="Trazado_260" data-name="Trazado 260" d="M23.133,2.792V18.048c-.1.4-.3.5-.8.5H15.156a2.792,2.792,0,0,0-1.795.6,3.49,3.49,0,0,0-1.3,1.4.7.7,0,0,1-1.1,0,3.29,3.29,0,0,0-.3-.6,3.39,3.39,0,0,0-2.892-1.4H.7c-.5,0-.7-.2-.7-.8V2.991a.6.6,0,0,1,.7-.7h1.6V.7a.6.6,0,0,1,.7-.7H9.074a3.191,3.191,0,0,1,2.293.8h.3A3.689,3.689,0,0,1,13.86,0h6.382a.5.5,0,0,1,.6.6v1.6h1.5C22.834,2.293,23.034,2.393,23.133,2.792Zm-3.49-1.6H14.259a4.088,4.088,0,0,0-1.895.5.6.6,0,0,0-.2.5V15.555h.1a3.191,3.191,0,0,1,1.895-.5h5.385C19.643,10.47,19.643,5.783,19.643,1.2ZM10.968,15.655V2.194c0-.1,0-.2-.1-.2a1.9,1.9,0,0,0-1.7-.8H3.49v13.86H8.575a3.889,3.889,0,0,1,2.393.6ZM20.84,3.49V15.555c0,.5-.2.8-.8.8H14.159a2.892,2.892,0,0,0-2.094.9c-.4.4-.6.4-1.1,0a2.194,2.194,0,0,0-2.094-1H3.291c-.9,0-1-.2-1-1V3.49H1.2V17.35H7.877a4.088,4.088,0,0,1,2.991,1.2c.3.2.4.5.6.6h0a4.487,4.487,0,0,1,3.689-1.795h6.581V3.49Z" transform="translate(0.01 0.013)"/>
</svg>
