<svg xmlns="http://www.w3.org/2000/svg" width="33.648" height="19.639" viewBox="0 0 33.648 19.639">
  <g id="Grupo_514" data-name="Grupo 514" transform="translate(-343.303 -27.323)">
    <path id="Trazado_110" data-name="Trazado 110" d="M355.862,45.938l-.532-.473,1.792.454v1.043h-5.3V45.919l1.93-.414-.2.316-.944-2.954.334.276H347.2l.295-.276-1.024,2.914-.1-.256,1.87.394v1.043H343.3V45.919l1.751-.433-.491.412,4.744-12.7,2.068-.058ZM347.77,42l-.177-.3h5l-.217.316-2.4-7.7h.473Z"/>
    <path id="Trazado_111" data-name="Trazado 111" d="M375.162,45.507l-.755-.671,2.545.644v1.482h-7.526V45.48l2.743-.588-.281.447-1.343-4.2.476.391h-8.169l.42-.391-1.455,4.14-.14-.363,2.658.56v1.482h-7.022V45.48l2.489-.617-.7.588,6.742-18.044,2.938-.084Zm-11.5-5.6-.252-.42h7.105l-.307.448L366.8,29h.671Z"/>
  </g>
</svg>
