<svg xmlns="http://www.w3.org/2000/svg" width="29.916" height="37.879" viewBox="0 0 29.916 37.879">
  <g id="Grupo_512" data-name="Grupo 512" transform="translate(20682 12010.164)">
    <path id="Trazado_218" data-name="Trazado 218" d="M29.356,2.943A2.443,2.443,0,0,0,26.913.5H.5L.505,26.911a2.443,2.443,0,0,0,2.443,2.443H14.926v7.213l7.214-7.223h7.213Z" transform="translate(-20681.969 -12010.135)" fill="none" stroke="#000" stroke-miterlimit="10" stroke-width="1"/>
    <path id="Trazado_219" data-name="Trazado 219" d="M3.385,17.471v-1.1l1.6-.436V5.725l-1.6-.435v-1.1h6.724v1.1l-2.221.435V16.164h3.155l.809-3.175H13.2v4.482Z" transform="translate(-20681.795 -12009.91)"/>
    <path id="Trazado_220" data-name="Trazado 220" d="M17.846,11.411v4.524l1.6.436v1.1h-6.1v-1.1l1.594-.436V5.724l-1.594-.435v-1.1H19.3c3.384,0,4.9,1.245,4.9,3.445,0,1.556-.955,2.7-2.781,3.2a3.357,3.357,0,0,1,2.139,2.553c.746,2.594,1.2,2.945,1.951,2.988v1.1a5.2,5.2,0,0,1-1.453.228c-1.6,0-2.345-.54-3.155-3.444-.643-2.324-1.059-2.847-2.573-2.847ZM19.2,10.083a2.026,2.026,0,0,0,2.054-2.3A2,2,0,0,0,19.07,5.521H17.846v4.566Z" transform="translate(-20681.189 -12009.91)"/>
    <path id="Trazado_221" data-name="Trazado 221" d="M10.53,21.917c-.028-.623-.065-1.376-.057-2.028h-.021c-.157.588-.359,1.24-.574,1.85l-.7,2.092H8.5l-.645-2.064c-.186-.615-.364-1.275-.485-1.878H7.355c-.021.632-.05,1.4-.085,2.057l-.108,1.943h-.83l.321-4.829H7.815L8.445,21c.172.565.322,1.139.444,1.677h.021c.129-.524.294-1.118.486-1.685l.666-1.934H11.21l.279,4.829h-.859Z" transform="translate(-20681.615 -12009.006)"/>
    <path id="Trazado_222" data-name="Trazado 222" d="M14.329,22.577l-.416,1.368H13l1.547-4.829h1.124l1.57,4.829H16.3l-.435-1.368Zm1.383-.666-.381-1.189c-.092-.294-.171-.624-.243-.9h-.014c-.072.279-.143.616-.23.9l-.372,1.189ZM16.278,18l-.9.859h-.711L15.3,18Z" transform="translate(-20681.209 -12009.07)"/>
    <path id="Trazado_223" data-name="Trazado 223" d="M18.978,22.926a2.434,2.434,0,0,0,1.168.309c.566,0,.882-.266.882-.66,0-.364-.243-.58-.859-.8-.8-.287-1.3-.71-1.3-1.4,0-.789.66-1.39,1.7-1.39a2.535,2.535,0,0,1,1.161.243l-.214.71a2.047,2.047,0,0,0-.961-.229c-.558,0-.8.3-.8.58,0,.373.28.544.925.8.838.314,1.245.737,1.245,1.433,0,.773-.588,1.447-1.833,1.447a2.869,2.869,0,0,1-1.3-.3Z" transform="translate(-20680.857 -12009.012)"/>
    <rect id="Rectángulo_485" data-name="Rectángulo 485" width="29.917" height="37.879" transform="translate(-20682 -12010.164)" fill="none"/>
  </g>
</svg>
