<svg xmlns="http://www.w3.org/2000/svg" width="23.268" height="23.12" viewBox="0 0 23.268 23.12">
  <path id="Trazado_268" data-name="Trazado 268" d="M23.167,22.35c-.117.117-.117.117-.117.234a.936.936,0,0,1-1.4.351l-.234-.234-5.266-5.266c-.117-.117-.117-.117-.117-.234l-.468.234a9.829,9.829,0,0,1-4.681,1.989A9.6,9.6,0,0,1,4.444,17.9,9.478,9.478,0,0,1,.114,11,9.6,9.6,0,0,1,2.221,3.511,9.829,9.829,0,0,1,8.657,0h1.872l1.638.351a9.947,9.947,0,0,1,5.5,3.745,9.712,9.712,0,0,1,1.638,7.372,8.659,8.659,0,0,1-1.989,4.33v.234h.234L22.7,21.3c.234.117.351.351.585.585Zm-5.5-12.638A8.074,8.074,0,0,0,9.71,1.755,8.074,8.074,0,0,0,1.753,9.712a7.957,7.957,0,0,0,15.914,0Z" transform="translate(-0.016)"/>
</svg>
