<svg xmlns="http://www.w3.org/2000/svg" width="26.123" height="20.822" viewBox="0 0 26.123 20.822">
  <path id="Trazado_2" data-name="Trazado 2" d="M13,20.6H2.2A2,2,0,0,1,0,18.4V2.2A2.1,2.1,0,0,1,2.3,0H23.9a2,2,0,0,1,2.2,2.2V18.6a2,2,0,0,1-2.2,2.2C20.3,20.6,16.6,20.6,13,20.6Zm-.1-1.4H23.7c.8,0,1-.1,1-.9V2.2c0-.8-.2-.9-1-.9H2.3c-1,0-1,.1-1,.9V18c0,1,0,1.1,1.1,1.1Zm-9.3-5h8.3V6.9H3.6Zm19-9.3V3.5H3.5V4.9ZM13.8,15.7v1.4h8.8V15.7Zm0-5.8v1.4h8.8V9.9ZM3.6,15.8v1.5h8.3V15.8Zm19-8.9H13.8V8.2h8.8Zm0,7.3V12.7H13.8v1.5Z" transform="translate(0.012 0.011)"/>
</svg>
