<svg xmlns="http://www.w3.org/2000/svg" width="23.119" height="23.12" viewBox="0 0 23.119 23.12">
  <path id="Trazado_200" data-name="Trazado 200" d="M23.023,11.608V11.8a2.3,2.3,0,0,1-.672,1.247c-1.823,1.823-3.742,3.741-5.564,5.564a2.208,2.208,0,0,1-3.262,0C10.553,15.445,7.578,12.472,4.509,9.5a2.246,2.246,0,0,1-.672-1.631V1.631a.732.732,0,0,1,.192-.48A7.115,7.115,0,0,1,5.276,0H11.9a2.853,2.853,0,0,1,1.438.672L22.352,9.69a2.315,2.315,0,0,1,.672,1.151.356.356,0,0,0,.1.288.719.719,0,0,0-.1.478M4.8,7.771a1.223,1.223,0,0,0,.48,1.055q4.461,4.461,8.921,8.921a1.283,1.283,0,0,0,1.919,0l5.467-5.469a1.387,1.387,0,0,0,0-2.013L12.662,1.343A2.014,2.014,0,0,0,11.608.96H5.756a.5.5,0,0,0-.383.192A1.387,1.387,0,0,0,4.8,2.494V7.771ZM0,12.184A3.266,3.266,0,0,0,1.055,13.91l8.058,8.058a2.879,2.879,0,0,0,1.823,1.151h.48a2.525,2.525,0,0,0,.767-.288c.288-.192.576-.48.863-.672l.576-.575a4.405,4.405,0,0,1-.672-.672l-.672.672a1.283,1.283,0,0,1-1.919,0l-8.73-8.73A1.056,1.056,0,0,1,.96,11.8V5.757c0-.1.1-.192.1-.288.1-.192.288-.288.48-.48A1.338,1.338,0,0,1,1.918,4.7V3.837a.981.981,0,0,0-.863.192,8.725,8.725,0,0,0-.863.96c-.1.1-.1.192-.192.288ZM7.1,4.8A1.6,1.6,0,0,0,8.633,6.428,1.617,1.617,0,0,0,10.265,4.8,1.665,1.665,0,0,0,8.73,3.166,1.617,1.617,0,0,0,7.1,4.8"/>
</svg>
