<svg xmlns="http://www.w3.org/2000/svg" width="12.059" height="20.82" viewBox="0 0 12.059 20.82">
  <path id="Trazado_261" data-name="Trazado 261" d="M10.74,0H1.413A1.413,1.413,0,0,0,0,1.413H0V19.407A1.413,1.413,0,0,0,1.413,20.82H10.74a1.413,1.413,0,0,0,1.319-1.413h0V1.413A1.413,1.413,0,0,0,10.74,0ZM3.957.754H8.1c.094,0,.283.188.283.471A.377.377,0,0,1,8.1,1.6H3.957c-.094,0-.188-.188-.188-.377S3.863.754,3.957.754ZM6.029,20.066a.659.659,0,0,1-.659-.659h0a.659.659,0,0,1,.565-.659h.094a.754.754,0,0,1,.754.659h0a.754.754,0,0,1-.754.659Zm5.087-1.884H.942V2.261H11.117ZM6.783,10.457H1.79V3.58H6.783Zm3.486-6.124H7.442V3.58h2.826Zm0,2.167H7.442V5.747h2.826Zm0,2.167H7.442V7.913h2.826Zm0,1.79H7.442V9.7h2.826Zm0,1.978H1.79v-.659h8.479Zm0,2.073H1.79v-.659h8.479Zm0,2.073H1.79v-.659h8.479Z"/>
</svg>
