<svg xmlns="http://www.w3.org/2000/svg" width="25.543" height="20.82" viewBox="0 0 25.543 20.82">
  <path id="Trazado_264" data-name="Trazado 264" d="M174.794,479.7a10.709,10.709,0,0,0,7.678-2.163,5.415,5.415,0,0,1-4.893-3.667,5.784,5.784,0,0,0,2.314-.1,5.3,5.3,0,0,1-4.121-5.206,5.342,5.342,0,0,0,2.33.62,5.268,5.268,0,0,1-2.265-3.723,5.113,5.113,0,0,1,.676-3.268,14.987,14.987,0,0,0,10.832,5.486,6.309,6.309,0,0,1-.053-2.026,5.269,5.269,0,0,1,3.753-4.233,5.213,5.213,0,0,1,5.132,1.319.419.419,0,0,0,.32.087,10,10,0,0,0,2.892-1.078c.064-.037.13-.067.245-.123a5.428,5.428,0,0,1-2.16,2.833,9.847,9.847,0,0,0,2.809-.743l.055.062c-.422.5-.824,1.011-1.276,1.479-.356.371-.78.677-1.159,1.027a.5.5,0,0,0-.159.326A15.1,15.1,0,0,1,191.2,479.54a13.518,13.518,0,0,1-6.252,2.358,15.423,15.423,0,0,1-6.341-.452,14.528,14.528,0,0,1-3.706-1.66A1.058,1.058,0,0,1,174.794,479.7Z" transform="translate(-174.795 -461.219)" fill="#03a9f4"/>
</svg>
