<svg xmlns="http://www.w3.org/2000/svg" width="20.102" height="21.565" viewBox="0 0 20.102 21.565">
  <g id="APP_LR-51" data-name="APP LR-51" transform="translate(0.002 -0.034)">
    <path id="Trazado_11" data-name="Trazado 11" d="M.6,21.6C.1,21.4,0,21,0,20.5A8.4,8.4,0,0,1,.7,17a6.8,6.8,0,0,1,3.8-3.8,11.2,11.2,0,0,1,4-1,16,16,0,0,1,3.8.1,10.1,10.1,0,0,1,4.6,1.6,7,7,0,0,1,2.9,4.6,12,12,0,0,1,.3,2c0,.5-.1.9-.6,1.1ZM18.4,20a.1.1,0,0,0,.1-.1,4.3,4.3,0,0,1-.1-.5,5.7,5.7,0,0,0-4.3-5.1,13.4,13.4,0,0,0-4-.6,15.2,15.2,0,0,0-4.2.6,5.8,5.8,0,0,0-2.5,1.5,5.5,5.5,0,0,0-1.6,3.1A4.3,4.3,0,0,0,1.6,20Z"/>
    <path id="Trazado_12" data-name="Trazado 12" d="M15.3,5.5A6,6,0,0,1,13,10a5,5,0,0,1-5.6.2A5.6,5.6,0,0,1,4.9,4.5,4.8,4.8,0,0,1,7,1,5.1,5.1,0,0,1,10.8.1a4.5,4.5,0,0,1,3.5,2.1,5.4,5.4,0,0,1,1,3.3ZM6.4,5.2a4.5,4.5,0,0,0,1,3,3.4,3.4,0,0,0,5,.2,4,4,0,0,0,1.2-3.7,3.609,3.609,0,1,0-7.2.5Z"/>
  </g>
</svg>
